
Cover 
 
http://desibbrg.org/images/97131801366923286511.jpg

Screens
 
http://desibbrg.org/images/76687818004634734278.png 
http://desibbrg.org/images/60389544899384147501.png 
http://desibbrg.org/images/23865235944312280088.png 
http://desibbrg.org/images/86708650850393534364.png 
http://desibbrg.org/images/44801387001759508780.png 
http://desibbrg.org/images/82247904470133782113.png 
http://desibbrg.org/images/18393776637396045555.png 
http://desibbrg.org/images/34404186405177077891.png 
http://desibbrg.org/images/66970932047617086201.png




Info - 

Ripper - Ictv
 
http://www.imdb.com/title/tt2106537/

General

Format                           : AVI
Format/Info                      : Audio Video Interleave
File size                        : 709 MiB
Duration                         : 2h 29mn
Overall bit rate                 : 662 Kbps

Video
ID                               : 0
Format                           : MPEG-4 Visual
Format profile                   : Advanced Simple@L5
Format settings, BVOP            : Yes
Format settings, QPel            : No
Format settings, GMC             : No warppoints
Format settings, Matrix          : Default (H.263)
Codec ID                         : XVID
Codec ID/Hint                    : XviD
Duration                         : 2h 29mn
Bit rate                         : 561 Kbps
Width                            : 656 pixels
Height                           : 272 pixels
Display aspect ratio             : 2.40:1
Frame rate                       : 23.976 fps
Color space                      : YUV
Chroma subsampling               : 4:2:0
Bit depth                        : 8 bits
Scan type                        : Progressive
Bits/(Pixel*Frame)               : 0.131
Stream size                      : 600 MiB (85%)


Audio
ID                               : 1
Format                           : MPEG Audio
Format version                   : Version 1
Format profile                   : Layer 3
Mode                             : Joint stereo
Mode extension                   : MS Stereo
Codec ID                         : 55
Codec ID/Hint                    : MP3
Duration                         : 2h 29mn
Bit rate mode                    : Constant
Bit rate                         : 96.0 Kbps
Channel(s)                       : 2 channels
Sampling rate                    : 32.0 KHz
Stream size                      : 103 MiB (14%)
Alignment                        : Aligned on interleaves
Interleave, duration             : 167 ms (4.00 video frames)
Interleave, preload duration     : 216 ms



Matru Ki Bijlee Ka Mandola Cast & Crew:

    Banner
    Vishal Bhardwaj Pictures Pvt Ltd
    Fox Star Studios

    Status
    Released

    Release Date
    11 Jan 2013

    Genre
    Comedy

    Producer
    Vishal Bhardwaj
    Kumar Mangat Pathak

    Star Cast
    Imran Khan.... Hukum Singh Matru
    Anushka Sharma.... Bijlee
    Pankaj Kapoor.... Harry Mandola
    Shabana Azmi.... Chaudhari Devi
    Aarya Babbar.... Baadal
    Navneet Nishan
    Ranvir Shorey

    Story / Writers
    Vishal Bhardwaj

    Background Music
    Vishal Bhardwaj

    Choreographers
    Saroj Khan
    Bosco Martis
    Caesar Gonsalves

    Costume Designers
    Payal Saluja

    Censor Details:

    Censor Dates
    20 Dec 2012

    Reels
    Not Available.

    Length in metres
    0.0

Music Director

    Vishal Bhardwaj

Color
C
Language
Hindi
Director

    Vishal Bhardwaj

Singers

    Sukhwinder Singh
    Ranjit Barot
    Vishal Bhardwaj
    Prem Dehati
    Rekha Bhardwaj
    Shankar Mahadevan
    Mohit Chauhan
    Master Saleem
    Pankaj Kapoor
    Imran Khan
    Africa Umoja

Lyricist

    Gulzar

Editor

    Sreekar Prasad

Cinematography

    Kartik Vijay

Action

    Shyam Kaushal

Screenplay

    Abhishek Chaubey
    Vishal Bhardwaj

Dialogue

    Vishal Bhardwaj

    Sound
    P M Satheesh

    Music Company
    Sony Music

